<svg width="683" height="507" viewBox="0 0 683 507" fill="none" xmlns="http://www.w3.org/2000/svg">
<rect x="2" y="2" width="679" height="503" rx="70" stroke="#666CAE" stroke-width="4"/>
<path d="M2 64.5H683" stroke="#666CAE" stroke-width="3"/>
<circle cx="162" cy="35" r="19" fill="#666CAE"/>
<circle cx="114" cy="35" r="19" fill="#666CAE"/>
<circle cx="63" cy="35" r="19" fill="#666CAE"/>
<path d="M265.328 292.312V290.437L280.422 282.75V285.75L268.844 291.328L268.938 291.141V291.609L268.844 291.422L280.422 297V300L265.328 292.312ZM286.659 303V279H289.565V289.687H302.362V279H305.269V303H302.362V292.266H289.565V303H286.659ZM309.774 281.578V279H327.774V281.578H320.228V303H317.321V281.578H309.774ZM332.26 279H335.729L343.885 298.922H344.166L352.322 279H355.791V303H353.072V284.766H352.838L345.338 303H342.713L335.213 284.766H334.979V303H332.26V279ZM361.618 303V279H364.524V300.422H375.681V303H361.618ZM397.571 277.875L389.837 306.609H387.306L395.04 277.875H397.571ZM416.74 294.563L401.646 302.25V299.25L413.225 293.672L413.131 293.859V293.391L413.225 293.578L401.646 288V285L416.74 292.688V294.563Z" fill="#666CAE"/>
</svg>
